# xmcd
#
# Track frame offsets:
#	150
#	16945
#	49200
#	87737
#	115712
#
# Disc length: 2115 seconds
#
# Revision: 2
# Processed by: cddbd v1.4PL0 Copyright (c) Steve Scherf et al.
# Submitted via: EasyCDDAExtractor 5.0.7
#
DISCID=39084105
DTITLE=Robbie Williams - South of the Border UK CD Single
DYEAR=1900
DGENRE=Pop
TTITLE0=South Of The Border(South Of The Border UK CD Single Version)
TTITLE1=South Of The Border(Mother's Milkin' It Mix)
TTITLE2=South Of The Border(Phil 'The Kickdrum' Dane and Matt Smith's Filthy Fun
TTITLE2=k Vocal Remix)
TTITLE3=South Of The Border(187 Lockdown's Southside Dub)
TTITLE4=South Of The Border(Shango and Danny Howells' The Unknown DJ's Meet Coca
TTITLE4=ine Katie Mix)
EXTD=
EXTT0=
EXTT1=
EXTT2=
EXTT3=
EXTT4=
PLAYORDER=
